<?xml version="1.0" encoding="UTF-8"?>
<svg width="92px" height="92px" viewBox="0 0 92 92" version="1.1" xmlns="http://www.w3.org/2000/svg" xmlns:xlink="http://www.w3.org/1999/xlink">
    <!-- Generator: Sketch 52.2 (67145) - http://www.bohemiancoding.com/sketch -->
    <title>simple-logo</title>
    <desc>Created with Sketch.</desc>
    <g id="simple-logo" stroke="none" stroke-width="1" fill="none" fill-rule="evenodd">
        <g id="icon" transform="translate(-52.000000, -52.000000)">
            <polygon id="bounds" points="0 0 196 0 196 196 0 196"></polygon>
            <path d="M98.5,143 C116.449254,143 131,128.347501 131,110.272727 C131,92.7683327 120.166667,73.6774236 98.5,53 C76.8333333,73.6774236 66,92.7683327 66,110.272727 C66,128.347501 80.5507456,143 98.5,143 Z" id="Oval" fill="#FF3355" fill-rule="nonzero"></path>
            <path d="M78.8985822,124.62689 C77.4840535,122.867876 77.770729,120.301144 79.5388899,118.893934 C81.3070509,117.486723 83.8871306,117.771915 85.3016593,119.530929 C91.1330531,126.782461 101.76943,127.958167 109.058673,122.156941 C110.033328,121.38125 110.918616,120.500542 111.698341,119.530929 C113.112869,117.771915 115.692949,117.486723 117.46111,118.893934 C119.229271,120.301144 119.515946,122.867876 118.101418,124.62689 C116.943415,126.066904 115.628637,127.374881 114.181134,128.526892 C103.35557,137.14254 87.5590335,135.396449 78.8985822,124.62689 Z" id="Path-2" fill="#FFFFFF" fill-rule="nonzero"></path>
        </g>
    </g>
</svg>