<svg width="1402" height="351" viewBox="0 0 1402 351" fill="none" xmlns="http://www.w3.org/2000/svg">
<g clip-path="url(#clip0)">
<path d="M127.048 345.482C195.005 345.482 250.096 290.05 250.096 221.67C250.096 128.812 127.048 5 127.048 5C127.048 5 4 128.812 4 221.67C4 290.05 59.0904 345.482 127.048 345.482Z" fill="#FF3355"/>
<path fill-rule="evenodd" clip-rule="evenodd" d="M56.3813 253.927C62.9488 248.848 72.3663 250.086 77.4157 256.692L79.4821 259.395C103.5 290.818 150.597 290.818 174.614 259.395L176.681 256.692C181.73 250.086 191.147 248.848 197.715 253.927C204.283 259.006 205.513 268.479 200.464 275.086L198.397 277.789C162.371 324.924 91.7254 324.924 55.699 277.789L53.6327 275.086C48.5832 268.479 49.8138 259.006 56.3813 253.927Z" fill="white"/>
<path d="M451.263 287.35C505.518 287.35 536.616 258.371 536.616 217.402C536.616 175.766 504.856 160.444 457.548 149.785C421.488 141.458 404.616 134.797 404.616 116.144C404.616 100.156 420.165 86.1662 442.992 86.1662C465.488 86.1662 488.315 95.8256 508.165 113.146L530.661 82.5022C507.834 62.8502 480.706 50.5261 444.646 50.5261C396.676 50.5261 362.932 79.8376 362.932 119.808C362.932 162.776 395.684 176.432 442.661 187.424C479.052 196.084 495.263 202.413 495.263 221.399C495.263 237.72 480.706 251.709 452.586 251.709C422.812 251.709 398.661 239.718 377.819 220.733L354 250.377C379.143 274.026 412.225 287.35 451.263 287.35Z" fill="black"/>
<path d="M587.996 85.5C600.568 85.5 610.823 74.5082 610.823 62.184C610.823 49.8599 600.568 39.2012 587.996 39.2012C575.094 39.2012 564.838 49.8599 564.838 62.184C564.838 74.5082 575.094 85.5 587.996 85.5ZM567.485 283.686H607.846V111.481H567.485V283.686Z" fill="black"/>
<path d="M844.442 107.484C818.968 107.484 797.465 120.141 789.194 140.126C778.608 119.808 758.758 107.484 734.608 107.484C713.104 107.484 695.571 118.142 686.969 134.797V111.481H646.608V283.686H686.969V178.098C686.969 157.113 702.518 142.124 724.352 142.124C744.202 142.124 757.766 158.113 757.766 180.762V283.686H797.134V178.098C797.134 157.113 812.352 142.124 834.517 142.124C854.036 142.124 867.6 158.113 867.6 180.762V283.686H906.968V174.101C906.968 135.13 880.171 107.484 844.442 107.484Z" fill="black"/>
<path d="M1042.71 107.484C1017.23 107.484 996.722 119.142 983.158 138.794V111.481H942.797V340.976H983.158V256.373C996.722 276.025 1017.23 287.683 1042.71 287.683C1088.03 287.683 1121.11 250.377 1121.11 197.417C1121.11 144.789 1088.03 107.484 1042.71 107.484ZM1031.79 253.042C1003.34 253.042 983.489 229.726 983.489 197.417C983.489 165.107 1003.34 142.124 1031.79 142.124C1060.57 142.124 1081.08 165.107 1081.08 197.417C1081.08 229.726 1060.57 253.042 1031.79 253.042Z" fill="black"/>
<path d="M1152.1 283.686H1192.46V50.8591H1152.1V283.686Z" fill="black"/>
<path d="M1311.29 251.709C1286.81 251.709 1268.94 235.055 1263.98 211.406H1393C1393 147.787 1362.23 107.484 1309.3 107.484C1260.67 107.484 1222.29 145.455 1222.29 197.084C1222.29 250.044 1262.65 287.683 1311.62 287.683C1336.43 287.683 1366.2 277.024 1381.09 261.036L1355.62 234.389C1346.02 244.382 1327.17 251.709 1311.29 251.709ZM1310.96 143.457C1335.11 143.457 1349.66 158.779 1354.29 180.429H1264.31C1270.26 157.779 1288.46 143.457 1310.96 143.457Z" fill="black"/>
</g>
<defs>
<clipPath id="clip0">
<rect width="1402" height="351" fill="white"/>
</clipPath>
</defs>
</svg>
